# xmcd
#
# Track frame offsets: 
#        150
#        13732
#        27397
#        41862
#        56782
#        68137
#        85853
#        103087
#        119082
#        134487
#        147612
#        160478
#
# Disc length: 2342 seconds
#
# Revision: 1
# Processed by: cddbd v1.5.1PL0 Copyright (c) Steve Scherf et al.
# Submitted via: ExactAudioCopy v0.95a5
#
DISCID=bb09240c
DTITLE=Diego Modena  and Eric Coueffe - Ocarina Forever
DYEAR=1999
DGENRE=New Age
TTITLE0=Forever
TTITLE1=Amalia
TTITLE2=La Criola
TTITLE3=Admitting
TTITLE4=King Lover
TTITLE5=Blue Are The Dreams
TTITLE6=Last Eldorado
TTITLE7=Metisse Reggae
TTITLE8=Amalia ( Reggae )
TTITLE9=Roses For Jiang Ling
TTITLE10=King Lover ( Reggae )
TTITLE11=Bananas Mammbo
EXTD=YEAR: 1999
EXTT0=
EXTT1=
EXTT2=
EXTT3=
EXTT4=
EXTT5=
EXTT6=
EXTT7=
EXTT8=
EXTT9=
EXTT10=
EXTT11=
PLAYORDER=
